<svg xmlns="http://www.w3.org/2000/svg" xmlns:xlink="http://www.w3.org/1999/xlink" version="1.1" width="256" height="256" viewBox="0 0 256 256" xml:space="preserve">

<defs>
</defs>
<g style="stroke: none; stroke-width: 0; stroke-dasharray: none; stroke-linecap: butt; stroke-linejoin: miter; stroke-miterlimit: 10; fill: none; fill-rule: nonzero; opacity: 1;" transform="translate(1.4065934065934016 1.4065934065934016) scale(2.81 2.81)" >
	<path d="M 76.887 60.047 H 51.947 c -0.828 0 -1.5 -0.672 -1.5 -1.5 s 0.672 -1.5 1.5 -1.5 h 24.939 C 82.463 57.047 87 52.51 87 46.934 c 0 -5.335 -4.179 -9.764 -9.514 -10.081 l -1.581 -0.094 l 0.18 -1.573 c 0.1 -0.872 0.147 -1.652 0.147 -2.385 c 0 -11.438 -9.305 -20.742 -20.742 -20.742 c -7.165 0 -13.729 3.641 -17.559 9.74 l -0.745 1.186 l -1.234 -0.662 c -2.296 -1.231 -4.89 -1.882 -7.503 -1.882 c -8.491 0 -15.457 6.65 -15.858 15.14 l -0.057 1.197 l -1.18 0.209 C 6.514 37.846 3 42.03 3 46.934 c 0 5.576 4.537 10.113 10.113 10.113 h 24.976 c 0.829 0 1.5 0.672 1.5 1.5 s -0.671 1.5 -1.5 1.5 H 13.113 C 5.883 60.047 0 54.164 0 46.934 c 0 -5.966 4.007 -11.11 9.683 -12.645 c 1.025 -9.536 9.057 -16.849 18.766 -16.849 c 2.648 0 5.282 0.563 7.693 1.637 c 4.46 -6.298 11.597 -10.019 19.349 -10.019 c 13.092 0 23.742 10.651 23.742 23.742 c 0 0.401 -0.013 0.813 -0.037 1.239 C 85.365 35.139 90 40.532 90 46.934 C 90 54.164 84.117 60.047 76.887 60.047 z" style="stroke: none; stroke-width: 1; stroke-dasharray: none; stroke-linecap: butt; stroke-linejoin: miter; stroke-miterlimit: 10; fill: rgb(36,49,74); fill-rule: nonzero; opacity: 1;" transform=" matrix(1 0 0 1 0 0) " stroke-linecap="round" />
	<path d="M 46.5 47.85 V 75.65 l 2.547 -3.225 c 0.513 -0.65 1.456 -0.761 2.106 -0.248 s 0.761 1.457 0.247 2.107 l -5.224 6.614 c -0.014 0.018 -0.032 0.03 -0.047 0.047 c -0.045 0.052 -0.094 0.101 -0.146 0.147 c -0.03 0.026 -0.059 0.051 -0.09 0.074 c -0.055 0.041 -0.114 0.077 -0.175 0.11 c -0.032 0.018 -0.063 0.037 -0.096 0.052 c -0.069 0.032 -0.142 0.055 -0.217 0.076 c -0.028 0.008 -0.055 0.02 -0.084 0.026 C 45.219 81.456 45.111 81.47 45 81.47 c -0.001 0 -0.003 0 -0.005 0 c -0.01 0 -0.019 -0.003 -0.029 -0.003 c -0.1 -0.002 -0.198 -0.013 -0.292 -0.034 c -0.031 -0.007 -0.059 -0.019 -0.089 -0.028 c -0.073 -0.021 -0.145 -0.045 -0.212 -0.076 c -0.033 -0.015 -0.064 -0.034 -0.096 -0.052 c -0.061 -0.034 -0.119 -0.07 -0.175 -0.112 c -0.031 -0.023 -0.06 -0.048 -0.09 -0.074 c -0.052 -0.046 -0.1 -0.096 -0.146 -0.149 c -0.015 -0.018 -0.035 -0.031 -0.049 -0.05 l -5.223 -6.704 c -0.509 -0.653 -0.392 -1.596 0.261 -2.105 c 0.274 -0.213 0.599 -0.317 0.921 -0.317 c 0.446 0 0.889 0.199 1.184 0.578 l 2.54 3.26 V 47.85 c -2.986 -0.684 -5.223 -3.358 -5.223 -6.549 c 0 -3.707 3.016 -6.723 6.723 -6.723 s 6.724 3.016 6.724 6.723 C 51.724 44.492 49.487 47.165 46.5 47.85 z M 45 37.578 c -2.053 0 -3.723 1.67 -3.723 3.723 s 1.67 3.724 3.723 3.724 s 3.724 -1.671 3.724 -3.724 S 47.053 37.578 45 37.578 z" style="stroke: none; stroke-width: 1; stroke-dasharray: none; stroke-linecap: butt; stroke-linejoin: miter; stroke-miterlimit: 10; fill: rgb(65,97,163); fill-rule: nonzero; opacity: 1;" transform=" matrix(1 0 0 1 0 0) " stroke-linecap="round" />
	<path d="M 88.5 76.247 H 58.175 c -0.828 0 -1.5 -0.672 -1.5 -1.5 s 0.672 -1.5 1.5 -1.5 H 88.5 c 0.828 0 1.5 0.672 1.5 1.5 S 89.328 76.247 88.5 76.247 z" style="stroke: none; stroke-width: 1; stroke-dasharray: none; stroke-linecap: butt; stroke-linejoin: miter; stroke-miterlimit: 10; fill: rgb(65,97,163); fill-rule: nonzero; opacity: 1;" transform=" matrix(1 0 0 1 0 0) " stroke-linecap="round" />
	<path d="M 31.825 76.247 H 1.5 c -0.829 0 -1.5 -0.672 -1.5 -1.5 s 0.671 -1.5 1.5 -1.5 h 30.325 c 0.829 0 1.5 0.672 1.5 1.5 S 32.653 76.247 31.825 76.247 z" style="stroke: none; stroke-width: 1; stroke-dasharray: none; stroke-linecap: butt; stroke-linejoin: miter; stroke-miterlimit: 10; fill: rgb(65,97,163); fill-rule: nonzero; opacity: 1;" transform=" matrix(1 0 0 1 0 0) " stroke-linecap="round" />
	<path d="M 67.472 34.742 c -0.828 0 -1.5 -0.671 -1.5 -1.5 c 0 -5.78 -4.702 -10.482 -10.481 -10.482 c -0.828 0 -1.5 -0.671 -1.5 -1.5 s 0.672 -1.5 1.5 -1.5 c 7.434 0 13.481 6.048 13.481 13.482 C 68.972 34.071 68.3 34.742 67.472 34.742 z" style="stroke: none; stroke-width: 1; stroke-dasharray: none; stroke-linecap: butt; stroke-linejoin: miter; stroke-miterlimit: 10; fill: rgb(37,50,74); fill-rule: nonzero; opacity: 1;" transform=" matrix(1 0 0 1 0 0) " stroke-linecap="round" />
	<path d="M 21.859 37.451 c -0.024 0 -0.048 0 -0.072 -0.001 c -0.828 -0.04 -1.467 -0.742 -1.428 -1.569 c 0.205 -4.33 3.758 -7.721 8.089 -7.721 c 0.829 0 1.5 0.671 1.5 1.5 s -0.671 1.5 -1.5 1.5 c -2.727 0 -4.963 2.136 -5.092 4.862 C 23.319 36.825 22.655 37.451 21.859 37.451 z" style="stroke: none; stroke-width: 1; stroke-dasharray: none; stroke-linecap: butt; stroke-linejoin: miter; stroke-miterlimit: 10; fill: rgb(37,50,74); fill-rule: nonzero; opacity: 1;" transform=" matrix(1 0 0 1 0 0) " stroke-linecap="round" />
</g>
</svg>